<?xml version="1.0" encoding="UTF-8"?>
<svg xmlns="http://www.w3.org/2000/svg" viewBox="0 0 45 45">
  <g fill="#fff" fill-rule="evenodd" stroke="#000" stroke-width="1.5" stroke-linecap="round" stroke-linejoin="round">
    <path d="M8 12a2 2 0 1 1 4 0 2 2 0 1 1-4 0zM24.5 7.5a2 2 0 1 1 4 0 2 2 0 1 1-4 0zM41 12a2 2 0 1 1 4 0 2 2 0 1 1-4 0zM16 8.5a2 2 0 1 1 4 0 2 2 0 1 1-4 0zM33 9a2 2 0 1 1 4 0 2 2 0 1 1-4 0z" transform="translate(-4, -3.5)"/>
    <path d="M9 26c8.5-1.5 21-1.5 27 0l2.5-12.5L31 25l-.3-14.1-5.2 13.6-3-14.5-3 14.5-5.2-13.6L14 25 6.5 13.5 9 26z"/>
    <path d="M9 26c0 2 1.5 2 2.5 4 1 1.5 1 1 .5 3.5-1.5 1-1 2.5-1 2.5-1.5 1.5 0 2.5 0 2.5 6.5 1 16.5 1 23 0 0 0 1.5-1 0-2.5 0 0 .5-1.5-1-2.5-.5-2.5-.5-2 .5-3.5 1-2 2.5-2 2.5-4-8.5-1.5-18.5-1.5-27 0z" stroke-linecap="butt"/>
    <path d="M11 38.5a35 35 1 0 0 23 0" fill="none" stroke-linecap="butt"/>
    <path d="M11 29a35 35 1 0 1 23 0" fill="none" stroke-linecap="butt"/>
  </g>
</svg> 